<?xml version="1.0" encoding="utf-8"?>
<!-- Generator: Adobe Illustrator 17.1.0, SVG Export Plug-In . SVG Version: 6.00 Build 0)  -->
<!DOCTYPE svg PUBLIC "-//W3C//DTD SVG 1.1//EN" "http://www.w3.org/Graphics/SVG/1.1/DTD/svg11.dtd">
<svg version="1.1" xmlns="http://www.w3.org/2000/svg" xmlns:xlink="http://www.w3.org/1999/xlink" x="0px" y="0px"
	 viewBox="0 0 50 110.1" style="enable-background:new 0 0 50 110.1;" xml:space="preserve">
<style type="text/css">
	.st0{fill:#B3B3B3;}
	.st1{fill:#1B1523;}
</style>
<g id="Layer_1">
</g>
<g id="Layer_2">
	<g>
		<path class="st1" d="M25,0C11.2,0,0,11.2,0,25s11.2,25,25,25c13.8,0,25-11.2,25-25S38.8,0,25,0z M10.6,15.1h28.6l0.3,0L24.9,27.9
			L10.4,15.1L10.6,15.1z M9.5,33.4V17c0-0.3,0.1-0.5,0.2-0.8l9.3,9.2l-9.3,8.8C9.6,33.9,9.5,33.7,9.5,33.4z M10.6,35.1l-0.1,0.1
			l10.1-8.5l4.3,3.9l4.4-4l9.8,8.5H10.6z M39.5,33.4c0,0.4,0.3,0.7,0.1,1l-9-8.9l9-9.1c0.1,0.2-0.1,0.4-0.1,0.7V33.4z"/>
		<path class="st0" d="M25,60.1c-13.8,0-25,11.2-25,25s11.2,25,25,25c13.8,0,25-11.2,25-25S38.8,60.1,25,60.1z M10.6,75h28.6
			l0.3,0.1L24.9,88L10.4,75.1L10.6,75z M9.6,93.4V77.1c0-0.3,0.1-0.5,0.2-0.8l9.3,9.2l-9.3,8.8C9.6,94,9.6,93.7,9.6,93.4z
			 M10.6,95.5l-0.1,0l10.1-8.6l4.3,3.9l4.4-3.9l9.8,8.6H10.6z M40.2,93.4c0,0.4-0.1,0.7-0.3,1l-9.2-8.9l9.3-9.1
			c0.1,0.2,0.1,0.4,0.1,0.7V93.4z"/>
	</g>
</g>
</svg>
