<?xml version="1.0" encoding="utf-8"?>
<!-- Generator: Adobe Illustrator 17.1.0, SVG Export Plug-In . SVG Version: 6.00 Build 0)  -->
<!DOCTYPE svg PUBLIC "-//W3C//DTD SVG 1.1//EN" "http://www.w3.org/Graphics/SVG/1.1/DTD/svg11.dtd">
<svg version="1.1" xmlns="http://www.w3.org/2000/svg" xmlns:xlink="http://www.w3.org/1999/xlink" x="0px" y="0px"
	 viewBox="0 0 50 110" style="enable-background:new 0 0 50 110;" xml:space="preserve">
<style type="text/css">
	.st0{fill:#B3B3B3;}
	.st1{fill:#1B1523;}
</style>
<g id="Layer_1">
	<g>
		<g>
			<path class="st0" d="M27.3,81.2L27.3,81.2C27.3,81.2,27.3,81.2,27.3,81.2L27.3,81.2z"/>
			<path class="st0" d="M25,60C11.2,60,0,71.2,0,85s11.2,25,25,25c13.8,0,25-11.2,25-25S38.8,60,25,60z M18.3,96.2h-5.8V78.6h5.8
				V96.2z M15.3,76.2L15.3,76.2c-2,0-3.3-1.4-3.3-3c0-1.7,1.3-3,3.3-3s3.2,1.3,3.3,3C18.7,74.9,17.4,76.2,15.3,76.2z M39.3,96.2
				h-5.8v-9.4c0-2.4-0.8-4-3-4c-1.6,0-2.6,1.1-3,2.1c-0.2,0.4-0.2,0.9-0.2,1.4v9.8h-5.8c0,0,0.1-15.9,0-17.6h5.8v2.5
				c0.8-1.2,2.2-2.9,5.3-2.9c3.8,0,6.7,2.5,6.7,7.9V96.2z"/>
		</g>
		<g>
			<path class="st1" d="M27.3,21.2L27.3,21.2C27.3,21.2,27.3,21.2,27.3,21.2L27.3,21.2z"/>
			<path class="st1" d="M25,0C11.2,0,0,11.2,0,25s11.2,25,25,25c13.8,0,25-11.2,25-25S38.8,0,25,0z M18,36.3h-6v-18h6V36.3z
				 M15.3,16.3L15.3,16.3c-2,0-3.3-1.4-3.3-3c0-1.7,1.3-3,3.3-3s3.2,1.3,3.3,3C18.7,14.9,17.4,16.3,15.3,16.3z M39,36.3h-6v-9.5
				c0-2.4-0.6-4-2.7-4c-1.6,0-2.6,1.1-3,2.1c-0.2,0.4-0.2,0.9-0.2,1.4v9.9h-5.5c0,0,0.1-16,0-18H27v2.9c1-1.2,2.2-2.9,5.3-2.9
				c3.8,0,6.7,2.5,6.7,7.9V36.3z"/>
		</g>
	</g>
</g>
<g id="Layer_2">
</g>
</svg>
