<?xml version="1.0" encoding="utf-8"?>
<!-- Generator: Adobe Illustrator 17.1.0, SVG Export Plug-In . SVG Version: 6.00 Build 0)  -->
<!DOCTYPE svg PUBLIC "-//W3C//DTD SVG 1.1//EN" "http://www.w3.org/Graphics/SVG/1.1/DTD/svg11.dtd">
<svg version="1.1" xmlns="http://www.w3.org/2000/svg" xmlns:xlink="http://www.w3.org/1999/xlink" x="0px" y="0px"
	 viewBox="0 0 50 110.1" style="enable-background:new 0 0 50 110.1;" xml:space="preserve">
<style type="text/css">
	.st0{fill:#B3B3B3;}
	.st1{fill:#1B1523;}
</style>
<g id="Layer_1">
	<g>
		<path class="st1" d="M25,0C11.2,0,0,11.2,0,25s11.2,25,25,25c13.8,0,25-11.2,25-25S38.8,0,25,0z M38.6,25.7
			c-2.8,11.5-21.8,16.3-30.5,4.4c3.3,3.2,9.2,3.5,12.9-0.3c-2.2,0.3-3.7-1.8-1.1-3c-2.4,0.3-3.7-1-4.3-2.1c0.6-0.6,1.2-0.9,2.4-0.9
			c-2.6-0.6-3.6-1.9-3.9-3.5c0.7-0.2,1.6-0.3,2.1-0.3c-2.3-1.2-3.1-3-3-4.4c4.1,1.5,6.7,2.7,8.9,3.9c0.8,0.4,1.6,1.2,2.6,2.1
			c1.2-3.3,2.8-6.7,5.4-8.4c0,0.4-0.2,0.7-0.5,1c0.8-0.7,1.7-1.1,2.7-1.3c-0.1,0.7-1.2,1.2-1.8,1.4c0.5-0.2,3.1-1.3,3.4-0.7
			c0.3,0.8-1.8,1.1-2.2,1.2c-0.3,0.1-0.5,0.2-0.8,0.3c3.3-0.3,6.4,2.4,7.4,5.8c0.1,0.2,0.1,0.5,0.2,0.8c1.2,0.4,3.4,0,4.1-0.5
			c-0.5,1.2-1.8,2.1-3.8,2.2c0.9,0.4,2.7,0.6,3.9,0.4C42,25,40.7,25.8,38.6,25.7z"/>
		<path class="st0" d="M25,60.1c-13.8,0-25,11.2-25,25s11.2,25,25,25c13.8,0,25-11.2,25-25S38.8,60.1,25,60.1z M38.6,85.8
			c-2.8,11.5-21.8,16.3-30.5,4.4c3.3,3.2,9.2,3.5,12.9-0.3c-2.2,0.3-3.7-1.8-1.1-3c-2.4,0.3-3.7-1-4.3-2.1c0.6-0.6,1.2-0.9,2.4-0.9
			c-2.6-0.6-3.6-1.9-3.9-3.5c0.7-0.2,1.6-0.3,2.1-0.3c-2.3-1.2-3.1-3-3-4.4c4.1,1.5,6.7,2.7,8.9,3.9c0.8,0.4,1.6,1.2,2.6,2.1
			c1.2-3.3,2.8-6.7,5.4-8.4c0,0.4-0.2,0.7-0.5,1c0.8-0.7,1.7-1.1,2.7-1.3c-0.1,0.7-1.2,1.2-1.8,1.4c0.5-0.2,3.1-1.3,3.4-0.7
			c0.3,0.8-1.8,1.1-2.2,1.2c-0.3,0.1-0.5,0.2-0.8,0.3c3.3-0.3,6.4,2.4,7.4,5.8c0.1,0.2,0.1,0.5,0.2,0.8c1.2,0.4,3.4,0,4.1-0.5
			c-0.5,1.2-1.8,2.1-3.8,2.2c0.9,0.4,2.7,0.6,3.9,0.4C42,85.1,40.7,85.8,38.6,85.8z"/>
	</g>
</g>
<g id="Layer_2">
</g>
</svg>
