<?xml version="1.0" encoding="utf-8"?>
<!-- Generator: Adobe Illustrator 17.1.0, SVG Export Plug-In . SVG Version: 6.00 Build 0)  -->
<!DOCTYPE svg PUBLIC "-//W3C//DTD SVG 1.1//EN" "http://www.w3.org/Graphics/SVG/1.1/DTD/svg11.dtd">
<svg version="1.1" xmlns="http://www.w3.org/2000/svg" xmlns:xlink="http://www.w3.org/1999/xlink" x="0px" y="0px"
	 viewBox="0 0 50 110" style="enable-background:new 0 0 50 110;" xml:space="preserve">
<style type="text/css">
	.st0{fill:#B3B3B3;}
	.st1{fill:#1B1523;}
</style>
<g id="Layer_1">
	<g>
		<g>
			<polygon class="st1" points="17.9,31.9 23.2,28.4 28.5,31.9 25.9,26.2 30.3,23.3 25,23.3 23.2,18 21.5,23.3 16.2,23.3 20.5,26.2 
							"/>
			<path class="st1" d="M25,0C11.2,0,0,11.2,0,25s11.2,25,25,25c13.8,0,25-11.2,25-25S38.8,0,25,0z M37.7,35.3h-2v-23H17.4l-1.8,2
				h18v25H13.5c-0.5,0-0.8-0.7-0.8-1.2V15.6c0-0.5,0.3-1.2,0.6-1.5l2.8-3c0.3-0.3,1-0.8,1.5-0.8h20.1V35.3z"/>
		</g>
		<g>
			<path class="st0" d="M25,60C11.2,60,0,71.2,0,85s11.2,25,25,25c13.8,0,25-11.2,25-25S38.8,60,25,60z M37.4,95.5h-1.8v-23H17.4
				l-1.8,1.8h18.2V99H13.5c-0.5,0-0.9-0.4-0.9-0.9V75.6c0-0.5,0.3-1.2,0.6-1.5l2.8-2.8c0.3-0.3,1-0.6,1.5-0.6h19.8V95.5z"/>
			<polygon class="st0" points="17.9,91.9 23.2,88.4 28.5,91.9 25.9,86.1 30.3,83.1 25,83.1 23.2,77.8 21.5,83.1 16.2,83.1 
				20.5,86.1 			"/>
		</g>
	</g>
</g>
<g id="Layer_2">
</g>
</svg>
