<?xml version="1.0" encoding="utf-8"?>
<!-- Generator: Adobe Illustrator 17.1.0, SVG Export Plug-In . SVG Version: 6.00 Build 0)  -->
<!DOCTYPE svg PUBLIC "-//W3C//DTD SVG 1.1//EN" "http://www.w3.org/Graphics/SVG/1.1/DTD/svg11.dtd">
<svg version="1.1" xmlns="http://www.w3.org/2000/svg" xmlns:xlink="http://www.w3.org/1999/xlink" x="0px" y="0px"
	 viewBox="0 0 50 110" style="enable-background:new 0 0 50 110;" xml:space="preserve">
<style type="text/css">
	.st0{fill:#B3B3B3;}
	.st1{fill:#1B1523;}
</style>
<g id="Layer_1">
	<g>
		<g>
			<path class="st0" d="M36.7,83.9c-1.1,0-2,0.7-2.4,2H39C38.8,84.6,37.8,83.9,36.7,83.9z"/>
			<path class="st0" d="M25,60C11.2,60,0,71.2,0,85c0,13.8,11.2,25,25,25c13.8,0,25-11.2,25-25C50,71.2,38.8,60,25,60z M25.9,93.2
				l-1.1-9.5c-0.2-1.3-0.2-2.6-0.2-2.8c0,0.2-0.3,1.5-0.6,2.7L21,93.2h-3l-3.1-9.6c-0.3-1.2-0.6-2.4-0.6-2.7c0,0.1,0,1.5-0.1,2.8
				l-1.1,9.5H9.4l2.3-16.8h4.2l3.2,10.1c0.2,0.6,0.3,1.5,0.3,1.6c0-0.1,0.1-1,0.3-1.6l3.2-10.1h4.2l2.3,16.8H25.9z M42.3,88h-8
				c0.2,1.9,1.4,2.7,2.8,2.7c1.3,0,2.2-0.6,2.8-1.4l2.2,1.6c-1.2,1.7-2.5,2.5-5.2,2.5c-3.4,0-6-2.5-6-6.1c0-3.3,2.3-6.1,5.9-6.1
				c4,0,5.5,2.8,5.5,6.4V88z"/>
		</g>
		<g>
			<path class="st1" d="M36.7,23.9c-1.1,0-2,1-2.4,2H39C38.8,24.9,37.8,23.9,36.7,23.9z"/>
			<path class="st1" d="M25,0C11.2,0,0,11.2,0,25c0,13.8,11.2,25,25,25c13.8,0,25-11.2,25-25C50,11.2,38.8,0,25,0z M25.9,33.9
				l-1.1-9.9c-0.2-1.3-0.2-2.8-0.2-2.9c0,0.2-0.3,1.7-0.6,2.9L21,33.9h-3L14.9,24c-0.3-1.2-0.6-2.6-0.6-2.9c0,0.1,0,1.7-0.1,3
				l-1.1,9.8H9.4l2.3-17h4.2l3.2,9.8c0.2,0.6,0.3,1.4,0.3,1.5c0-0.1,0.1-0.8,0.3-1.4l3.2-9.9h4.2l2.3,17H25.9z M41.7,27.9h-7.4
				c0.2,2,1.4,2.7,2.8,2.7c1.3,0,2.2-0.6,2.8-1.4l2.2,1.6c-1.2,1.7-2.5,2.6-5.2,2.6c-3.4,0-6-2.5-6-6.1c0-3.3,2-6.1,5.6-6.1
				c4,0,5.2,2.8,5.2,6.4V27.9z"/>
		</g>
	</g>
</g>
<g id="Layer_2">
</g>
</svg>
