<?xml version="1.0" encoding="utf-8"?>
<!-- Generator: Adobe Illustrator 17.1.0, SVG Export Plug-In . SVG Version: 6.00 Build 0)  -->
<!DOCTYPE svg PUBLIC "-//W3C//DTD SVG 1.1//EN" "http://www.w3.org/Graphics/SVG/1.1/DTD/svg11.dtd">
<svg version="1.1" xmlns="http://www.w3.org/2000/svg" xmlns:xlink="http://www.w3.org/1999/xlink" x="0px" y="0px"
	 viewBox="0 0 186.6 198.7" style="enable-background:new 0 0 186.6 198.7;" xml:space="preserve">
<style type="text/css">
	.st0{fill:#B3B3B3;}
	.st1{fill:#1B1523;}
</style>
<g id="Layer_1">
</g>
<g id="Layer_2">
	<g>
		<g>
			<path class="st1" d="M64.3,76.7c-4.3-1.5-9.4,2.6-7.7,7.2c0.3,0.8,1.3,0.8,1.7,0c0.6-1.5,0.8-2.9,2.2-3.9c1-0.7,2.3-0.9,3.5-0.7
				c3.4,0.8,3,5.1,2.2,7.6c-0.9,2.9-2.4,5.8-4.3,8.2c-0.6,0.8-1.5,1.8-2.5,2.1c-1.1,0.3-1.4-2.2-1.6-2.8c-0.2-1-2-0.8-1.8,0.2
				c0.5,3.5,2.7,5.9,5.9,3.3c3.2-2.6,5.3-7.3,6.6-11.1C69.6,83,68.4,78.2,64.3,76.7z"/>
			<path class="st1" d="M54,118.3c1.4-1.2,2.7-2.4,4.1-3.6c0.3-0.2-0.1-0.6-0.4-0.4c-8.2,7.1-17.7,13.2-28.3,16.2
				c-0.2,0.1-0.3,0.1-0.4,0.2c-7.9-9.2-15.5-18.7-23.5-27.8c0,0,0-0.1,0-0.1c-0.8-1.3-1.3-2.7-1.9-4c4.4-5.4,9.9-10.4,12.4-16.9
				c1.8-4.6,1-10.1,0.8-14.9c-0.3-6.7,0.8-13.2,2.8-19.6c0,0,0,0,0-0.1c0.2,0.2,0.6,0.1,0.7-0.2c0.2-0.6,0.5-1.1,0.9-1.6
				c0.2-0.3-0.3-0.6-0.5-0.4c-0.1,0.1-0.1,0.1-0.2,0.2c0-0.3-0.2-0.6-0.6-0.6c0.1-0.2,0.3-0.4,0.4-0.7c0.3-0.6-0.4-1.1-0.9-0.7
				c-0.9,0.7-1.1,1.9-1.1,3c-0.2,0.1-0.4,0.2-0.5,0.4c-0.2,0.7-0.4,1.4-0.6,2.1c0,0.1-0.1,0.1-0.1,0.2c0,0,0,0,0,0.1
				c-2.7,10-1.2,19.6-2.7,29.8C13.5,86.6,4.4,90.3,2.4,97.5c-0.6,0.1-1.2,0.6-1,1.3c0.3,1,0.9,1.9,1.7,2.7c0,0,0,0,0,0.1
				c6.9,11.5,16.1,22.3,25.6,31.7c0.3,0.3,0.6,0.3,0.8,0.3c0.4,0.1,0.8,0.1,1.2-0.1c8.3-3.7,15.3-8.5,22.1-14.1
				c1.5,5.8,2.3,11.1,2.7,17.1c0.1,1.7,2.6,1.7,2.6,0c0.2-6-0.6-12.8-3.9-18C54.2,118.4,54.1,118.3,54,118.3z"/>
			<path class="st1" d="M130,44.4c-4.4-4.6-10.8-4.2-15.4-8c-0.4-0.3-1-0.2-1.2,0.1c0.3-3.7-3.1-7.5-4.4-10.7
				c-0.2-0.4-0.6-0.7-1.1-0.8c4.6-21.8,33.1-24.8,49.9-16.9c22.1,10.4,26.1,35.2,24.8,57.2c-1.4,22.9-7,45.5-9.2,68.4
				c-2,20.3-6.2,44.2-0.1,64.2c1.4,0,2.9-0.1,4.3-0.1c-3.7-12.5-3-25.4-2.2-38.2c0.9-14.8,2.1-29.6,3.9-44.3
				c3.2-25.3,10.6-50.7,5.7-76.3c-3.9-20.6-19.9-36-40.7-38.9c-16.6-2.3-36.6,7-38.3,25.2c0,0,0,0.1,0,0.1c-3.1,1.9-6.2,3.8-9.3,5.7
				c-9-10.7-22.9-16.6-37.2-14.8c-9.3,1.2-17,6.1-24.5,11.3c-4.4,3.1-8.5,6.6-11.7,10.8c0.4,0.6,0.8,1.2,1.3,1.8
				c8.4-9.9,21.5-18,33.2-20.6c18.3-4.2,35,7.5,42.8,23.4c6.9,14,5.7,31.3,0.4,45.6c-1.1,3.1-2.5,5.8-4.2,8.3
				c0.7,0.8,1.4,1.7,2.2,2.3c8.8-14.1,10.8-34.6,6.6-50.4c0.3-0.1,0.6-0.3,0.9-0.7c2.2-3.5,5.8-6.8,6.6-11c1.3,3.5,5,4.8,8.2,6.2
				c6.4,2.9,10.1,9.3,12.2,15.7c4.7,14.5,1.9,31,0.1,45.8c-1.9,16.2-2.8,32.5-3.8,48.7c-1,14.8-1.2,29.8,1.2,44.5c1.5,0,2.9,0,4.4,0
				c-3.8-32.4-0.4-65.9,3.3-98.2c1.6-14,3-28.4-0.9-42.1C136.4,52.9,133.7,48.3,130,44.4z M109.7,36.8c-0.5,3-3.2,5.8-5.1,8.4
				c-0.4-1.2-0.9-2.4-1.4-3.6c-1.5-3.3-3.3-6.3-5.4-9c3-1,5.9-2.5,8.8-3.7C108,31.4,110.1,34.4,109.7,36.8z"/>
			<path class="st1" d="M71.2,133.5c0-0.1,0-0.1,0-0.2c-1.7-5.9-2.7-11.8-3.5-17.8c9.3,0.8,16.9-1.8,22.9-6.5
				c-0.2-0.1-0.4-0.2-0.5-0.4c-0.8-0.7-1.6-1.4-2.5-2.1c-5.8,3.9-12.9,5.9-21,5.9c-2,0-1.9,2.8,0,3c0,0,0.1,0,0.1,0
				c-0.7,6.2,0.3,12.5,1.9,18.5c-1.9,0.5-3.9,1.3-5.8,1.9c-2.4,0.7-4.7,1.3-7,2.4c-0.2,0.1-0.2,0.2-0.2,0.3
				c-2.1,2.1-2.4,4.1-2.5,7.1c-0.2,6.8-3.1,12-6.3,17.7c-6.7,11.9-14.9,22.9-22.7,34c-0.2,0.3-0.3,0.6-0.3,0.9
				c1.6-0.1,3.2-0.1,4.8,0c7-10.2,13.8-20.3,20.1-31c2.6-4.4,5.2-8.9,6.6-13.8c1.4-4.7-0.8-10,1.1-14.5c2.6-0.6,5.3-1.2,8-1.6
				c2.4-0.3,5.1-0.5,7.3-1.6C73,135.3,72.4,133.8,71.2,133.5z"/>
			<path class="st1" d="M89.4,198.4c1.1-0.1,2.2-0.1,3.3-0.2c2.7-9.9-1.2-21.8-4.5-30.8c-2.1-5.9-5-11.4-6.9-17.3
				c-1.7-5.4-3.1-11.8-7.4-15.8c-0.7-0.6-1.6,0.2-1.2,0.9c4.4,9.4,7,19.7,11,29.3C88.2,175.5,90.9,186.6,89.4,198.4z"/>
			<path class="st1" d="M179.2,115.5c3.2-25.3,10.6-50.7,5.7-76.3c-3.9-20.6-19.9-36-40.7-38.9c-16-2.2-35,6.3-38,23.2
				c-3.4,2.5-6.8,4.9-10.6,6.7c-9-10-22.4-15.4-36.2-13.7c-9.3,1.2-17,6.1-24.5,11.3c-4.4,3.1-8.5,6.6-11.7,10.8
				c0.4,0.6,0.8,1.2,1.3,1.8c8.4-9.9,21.5-18,33.2-20.6c13.4-3.1,25.9,2.4,34.7,11.8c-1.1,0.4-2.2,0.8-3.4,1.1c-0.5,0.1-0.4,1,0.1,1
				c1.6,0,3.1-0.2,4.6-0.6c2.6,3.1,4.9,6.5,6.7,10.1c0.6,1.3,1.2,2.6,1.6,3.9c-1.9,4.2-3.1,8.6-3,13c0,0.5,0.7,0.6,0.9,0.1
				c1.1-2.9,2.3-5.6,3.7-8.1c3,12,1.4,25.3-2.8,36.7c-1.1,3.1-2.5,5.8-4.2,8.3c0.7,0.8,1.4,1.7,2.2,2.3c8.8-14.1,10.8-34.6,6.6-50.4
				c0.3-0.1,0.6-0.3,0.9-0.7c1.3-2,3-4,4.4-6.1c1-1.1,2-2.2,3.1-3.3c1.7,2.3,4.6,3.4,7.3,4.6c6.4,2.9,10.1,9.3,12.2,15.7
				c4.7,14.5,1.9,31,0.1,45.8c-1.9,16.2-2.8,32.5-3.8,48.7c-1,14.8-1.2,29.8,1.2,44.5c1.5,0,2.9,0,4.4,0
				c-3.8-32.4-0.4-65.9,3.3-98.2c1.6-14,3-28.4-0.9-42.1c-1.5-5.2-4.2-9.8-8-13.6c-4.1-4.2-9.7-4.2-14.2-7.1c4.3-4.1,9-7.9,13.9-12
				c2.5-2.1-0.7-6.1-3.4-4.4c-4.6,2.9-9.5,6.9-13.9,11.6c-1-2.3-2.7-4.5-3.5-6.5c2.2-1.5,4.3-3.1,6.3-4.7c1.5-1.2-0.5-3.8-2-2.7
				c-1.5,1-2.9,2.1-4.3,3.2c6.7-18.7,33-21,49-13.5c22.1,10.4,26.1,35.2,24.8,57.2c-1.4,22.9-7,45.5-9.2,68.4
				c-2,20.3-6.2,44.2-0.1,64.2c1.4,0,2.9-0.1,4.3-0.1c-3.7-12.5-3-25.4-2.2-38.2C176.2,145,177.4,130.2,179.2,115.5z M103.9,43.6
				c-0.3-0.7-0.5-1.3-0.8-2c-1.5-3.3-3.3-6.3-5.4-9c3-1,5.9-2.5,8.8-3.7c1.1,2,2.7,4.4,3.1,6.5C107.5,38,105.6,40.8,103.9,43.6z"/>
			<path class="st1" d="M58.3,131.9c0-0.2,0-0.4,0-0.6c0.1,0,0.1-0.1,0.2-0.1c-0.2-0.8-0.4-1.6-0.5-2.3c0-0.3-0.1-0.5-0.1-0.8
				c0-0.1-0.1-0.1-0.1-0.1c-0.8-3.3-1.5-6.6-2.1-9.9c0.8-0.9,1.5-1.9,2.1-3c0.2-0.1,0.3-0.3,0.5-0.4c0.1-0.1,0.1-0.3,0-0.4
				c0-0.1,0.1-0.1,0.1-0.2c0.2-0.4-0.3-0.7-0.6-0.3c-0.4,0.6-1,1.2-1.5,1.8c-0.6,0.5-1.1,0.9-1.7,1.4c-0.3,0.1-0.4,0.2-0.6,0.5
				c-7.3,5.7-15.5,10.5-24.4,13.1c-0.2,0.1-0.3,0.1-0.4,0.2c-7.9-9.2-15.5-18.7-23.5-27.8c0,0,0-0.1,0-0.1c-0.8-1.3-1.3-2.7-1.9-4
				c4.4-5.4,9.9-10.4,12.4-16.9c1.8-4.6,1-10.1,0.8-14.9c-0.3-6.7,0.8-13.2,2.8-19.6c0,0,0,0,0-0.1c0.2,0.2,0.6,0.1,0.7-0.2
				c0.2-0.6,0.5-1.1,0.9-1.6c0.2-0.3-0.3-0.6-0.5-0.4c-0.1,0.1-0.1,0.1-0.2,0.2c0-0.3-0.2-0.6-0.6-0.6c0.1-0.2,0.3-0.4,0.4-0.7
				c0.3-0.6-0.4-1.1-0.9-0.7c-0.2,0.1-0.3,0.3-0.4,0.5c-0.5-0.1-1,0-1.2,0.5c-5.9,10.9-3,24.4-3.6,36.4c-1.1,3.5-3.8,6.1-6.3,8.8
				c-0.3,0-0.5,0-0.8,0.3c-2.2,2.5-4.4,5.1-5.9,8.1c-0.1,0.2-0.1,0.4,0,0.6c0,0.2-0.1,0.4,0,0.6c0.2,0.6,0.5,1.1,0.9,1.6
				c1.2,5.8,5.5,10.3,9.7,14.4c0.2,0.1,0.3,0.2,0.5,0.3c5,6.4,10.6,12.6,16.2,18.2c0.3,0.3,0.6,0.3,0.8,0.3c0.4,0.1,0.8,0.1,1.2-0.1
				c0.7-0.3,1.4-0.7,2.1-1c6.5-2.9,14.7-6.4,20.3-11.7c0.3,1.1,0.5,2.3,0.7,3.4c0.2,2.2,0.3,4.4,0.7,6.6c0,0.1,0,0.3,0,0.4
				c0.5,2.9,0.2,6-0.4,9c0,0.4,0,0.7,0,1.1c-0.1,0-0.1,0.1-0.2,0.1c-0.5,1.2-0.6,2.6-0.7,4.2c-0.2,6.8-3.1,12-6.3,17.7
				c-6.7,11.9-14.9,22.9-22.7,34c-0.2,0.3-0.3,0.6-0.3,0.9c1.6-0.1,3.2-0.1,4.8,0c7-10.2,13.8-20.3,20.1-31
				c2.6-4.4,5.2-8.9,6.6-13.8c0.2-0.6,0.3-1.2,0.4-1.9c0.1,0.1,0.3,0.1,0.4,0.2c0.3-2.3,0.6-4.6,1-6.9c0.3-0.1,0.5-0.4,0.6-0.7
				c0.1,0,0.3-0.1,0.4-0.2c0.5,0.6,1.9,0.4,1.8-0.6C59.8,139.6,59,135.7,58.3,131.9z"/>
			<path class="st1" d="M71.1,136.2c0.2-0.1,0.4-0.1,0.6-0.3c1.3-0.7,0.6-2.2-0.5-2.4c0-0.1,0-0.1,0-0.2c-1-3.5-1.7-7-2.4-10.5
				c-0.1-1.6-0.4-3.1-0.4-4.7c0.1-0.2-0.2-0.5-0.2-0.8v0c0-0.4,0.2-0.7,0.2-1.1c0.4-0.1,0.8-0.3,1-0.7c8.5,0.4,15.6-2.1,21.2-6.6
				c-0.2-0.1-0.3-0.2-0.5-0.4c-0.8-0.7-1.6-1.4-2.5-2.1c-5.3,3.6-11.7,5.5-18.9,5.8c0.1-1.5,0.2-3,0.4-4.5c0.1-0.9-1.4-1.1-1.6-0.2
				c-0.3,1.1-0.5,2.3-0.7,3.4c-0.4-0.4-0.7-0.8-1.1-1.2c-1.4-3.3-3-6.7-4.3-10.1c1.7-0.2,3.3-1,4.4-2.6c0.8-1.1-0.2-2.3-1.3-2.5
				c1.7-2.4,2.9-5.3,3.7-7.9c1.2-3.8,0-8.6-4.1-10.1c-4.3-1.5-9.4,2.6-7.7,7.2c0.3,0.8,1.3,0.8,1.7,0c0.6-1.5,0.8-2.9,2.2-3.9
				c1-0.7,2.3-0.9,3.5-0.7c3.4,0.8,3,5.1,2.2,7.6c-0.9,2.9-2.4,5.8-4.3,8.2c-0.3,0.4-0.6,0.8-1,1.1c-1.2,0-2.3-0.7-3-1.7
				c0,0,0-0.1,0-0.1c0-0.2-0.2-0.4-0.3-0.5c-0.5-0.9-0.7-1.9-0.5-2.9c0.2-0.6-0.7-1.2-1.1-0.7c-2,2.6-1.4,5.9,1.1,8
				c1,0.9,2.2,1.3,3.4,1.5c0,0.1,0,0.2,0.1,0.3c0,0,0,0,0,0.1c0.2,2.8,0.9,5.5,2,8.1c0.3,0.7,0.7,1.5,1.1,2.4c0.8,2.5,1.7,5,2.5,7.5
				c0,0.1,0.1,0.2,0.2,0.3c-0.3,5.3-0.1,10.8,0.8,16.1c-0.6,0.2-1.1,0.4-1.7,0.6c-0.2,0.1-0.3,0.3-0.5,0.4l-2.9,1.6
				c0.5,0.1,1,0.4,1.4,0.7c0.5-0.1,1-0.2,1.5-0.3c0.9-0.1,1.9-0.2,2.8-0.4c1,4.7,2.4,9.3,4.3,13.4c0.9,2,4.2,0.5,3.5-1.5
				C73.5,144.9,72.2,140.6,71.1,136.2z"/>
			<path class="st1" d="M89.4,198.4c1.1-0.1,2.2-0.1,3.3-0.2c2.7-9.9-1.2-21.8-4.5-30.8c-2.1-5.9-5-11.4-6.9-17.3
				c-1.7-5.4-3.1-11.8-7.4-15.8c-0.7-0.6-1.6,0.2-1.2,0.9c4.4,9.4,7,19.7,11,29.3C88.2,175.5,90.9,186.6,89.4,198.4z"/>
			<path class="st1" d="M179.2,115.5c3.2-25.3,10.6-50.7,5.7-76.3c-3.9-20.6-19.9-36-40.7-38.9c-16-2.2-35,6.3-38,23.2
				c-3.4,2.5-6.8,4.9-10.6,6.7c-9-10-22.4-15.4-36.2-13.7c-9.3,1.2-17,6.1-24.5,11.3c-4.4,3.1-8.5,6.6-11.7,10.8
				c0.4,0.6,0.8,1.2,1.3,1.8c8.4-9.9,21.5-18,33.2-20.6c13.4-3.1,25.9,2.4,34.7,11.8c-1.1,0.4-2.2,0.8-3.4,1.1c-0.5,0.1-0.4,1,0.1,1
				c1.6,0,3.1-0.2,4.6-0.6c2.6,3.1,4.9,6.5,6.7,10.1c0.6,1.3,1.2,2.6,1.6,3.9c-1.9,4.2-3.1,8.6-3,13c0,0.5,0.7,0.6,0.9,0.1
				c1.1-2.9,2.3-5.6,3.7-8.1c3,12,1.4,25.3-2.8,36.7c-1.1,3.1-2.5,5.8-4.2,8.3c0.7,0.8,1.4,1.7,2.2,2.3c8.8-14.1,10.8-34.6,6.6-50.4
				c0.3-0.1,0.6-0.3,0.9-0.7c1.3-2,3-4,4.4-6.1c1-1.1,2-2.2,3.1-3.3c1.7,2.3,4.6,3.4,7.3,4.6c6.4,2.9,10.1,9.3,12.2,15.7
				c4.7,14.5,1.9,31,0.1,45.8c-1.9,16.2-2.8,32.5-3.8,48.7c-1,14.8-1.2,29.8,1.2,44.5c1.5,0,2.9,0,4.4,0
				c-3.8-32.4-0.4-65.9,3.3-98.2c1.6-14,3-28.4-0.9-42.1c-1.5-5.2-4.2-9.8-8-13.6c-4.1-4.2-9.7-4.2-14.2-7.1c4.3-4.1,9-7.9,13.9-12
				c2.5-2.1-0.7-6.1-3.4-4.4c-4.6,2.9-9.5,6.9-13.9,11.6c-1-2.3-2.7-4.5-3.5-6.5c2.2-1.5,4.3-3.1,6.3-4.7c1.5-1.2-0.5-3.8-2-2.7
				c-1.5,1-2.9,2.1-4.3,3.2c6.7-18.7,33-21,49-13.5c22.1,10.4,26.1,35.2,24.8,57.2c-1.4,22.9-7,45.5-9.2,68.4
				c-2,20.3-6.2,44.2-0.1,64.2c1.4,0,2.9-0.1,4.3-0.1c-3.7-12.5-3-25.4-2.2-38.2C176.2,145,177.4,130.2,179.2,115.5z M103.9,43.6
				c-0.3-0.7-0.5-1.3-0.8-2c-1.5-3.3-3.3-6.3-5.4-9c3-1,5.9-2.5,8.8-3.7c1.1,2,2.7,4.4,3.1,6.5C107.5,38,105.6,40.8,103.9,43.6z"/>
			<path class="st1" d="M58.3,131.9c0-0.2,0-0.4,0-0.6c0.1,0,0.1-0.1,0.2-0.1c-0.2-0.8-0.4-1.6-0.5-2.3c0-0.3-0.1-0.5-0.1-0.8
				c0-0.1-0.1-0.1-0.1-0.1c-0.8-3.2-1.5-6.5-2.1-9.8c0.2-0.3,0.4-0.6,0.6-0.9c0.5-0.7,1-1.4,1.5-2.2c0.2-0.1,0.3-0.3,0.5-0.4
				c0.1-0.1,0.1-0.3,0-0.4c0-0.1,0.1-0.1,0.1-0.2c0.1-0.1,0-0.2,0-0.3c0.1-0.3,0.3-0.5,0.4-0.8c0.5-1.1-0.9-2-1.6-0.9
				c-3.3,5.1-9.1,8.9-13.8,12.5c-0.3,0.2-0.6,0.4-0.9,0.6c-4,2.2-8.3,4-12.7,5.3c-0.1,0-0.1,0.1-0.1,0.1c-2.5-3.8-5.9-7.1-9.1-10.4
				c-3.9-4.7-7.8-9.3-11.8-14c-1.6-2.5-3.1-5-4.5-7.7c0,0,0.1,0,0.1-0.1c0.1-0.1,0.1-0.2,0.2-0.3c4.3-5.2,9.5-10.1,12-16.3
				c1-2.6,1.2-5.5,1.2-8.5c1.1-9,0.2-17.8,3.5-26.7c0.2-0.4,0.4-0.8,0.7-1.2c0.2-0.3-0.3-0.6-0.5-0.4c-0.1,0.1-0.1,0.1-0.2,0.2
				c0-0.3-0.2-0.6-0.6-0.6c0.1-0.2,0.3-0.4,0.4-0.7c0.3-0.6-0.4-1.1-0.9-0.7c0,0-0.1,0.1-0.1,0.1c0-0.2-0.1-0.4-0.1-0.6
				c-0.1-0.7-1.3-0.7-1.4,0c-0.1,0.4-0.1,0.9-0.2,1.3c0,0.1,0,0.2,0,0.3c-4.8,9.1-3.6,19.8-3.5,30.1c0,0.5-0.1,1-0.2,1.5
				c-1.1,4.5-2.9,8.3-6.6,12.1c-3,3.1-6,6-7.5,10.1c-0.2,0.6,0,1.1,0.4,1.5c0.4,2.5,2,4.7,3.4,6.7c0.1,0.2,0.2,0.3,0.4,0.4
				c2,3.5,4.5,6.8,7.2,9.9c5.3,6.1,10.8,12,16.3,18c0.4,0.4,0.8,0.5,1.2,0.5c1.8,0.6,3.9,0,5.8-0.8c3.5-0.9,6.9-3.3,9.6-5.2
				c3.3-2.3,6.4-4.9,8.9-7.8c0.2,1,0.5,2,0.7,3c0.2,2.2,0.3,4.4,0.7,6.6c0,0.1,0,0.3,0,0.4c0.5,2.9,0.2,6-0.4,9c0,0.4,0,0.7,0,1.1
				c-0.1,0-0.1,0.1-0.2,0.1c-0.5,1.2-0.6,2.6-0.7,4.2c-0.2,6.8-3.1,12-6.3,17.7c-6.7,11.9-14.9,22.9-22.7,34
				c-0.2,0.3-0.3,0.6-0.3,0.9c1.6-0.1,3.2-0.1,4.8,0c7-10.2,13.8-20.3,20.1-31c2.6-4.4,5.2-8.9,6.6-13.8c0.2-0.6,0.3-1.2,0.4-1.9
				c0.1,0.1,0.3,0.1,0.4,0.2c0.3-2.3,0.6-4.6,1-6.9c0.3-0.1,0.5-0.4,0.6-0.7c0.1,0,0.3-0.1,0.4-0.2c0.5,0.6,1.9,0.4,1.8-0.6
				C59.8,139.6,59,135.7,58.3,131.9z"/>
			<path class="st1" d="M71.1,136.2c0.2-0.1,0.4-0.1,0.6-0.3c1.3-0.7,0.6-2.2-0.5-2.4c0-0.1,0-0.1,0-0.2c-1-3.5-1.7-7-2.4-10.5
				c-0.1-1.6-0.5-3.1-0.5-4.7c0.1-0.2-0.3-0.5-0.3-0.8v0c0-0.4,0.3-0.7,0.3-1.1c0.4-0.1,0.9-0.3,1-0.7c8.5,0.4,15.6-2.1,21.2-6.6
				c-0.2-0.1-0.3-0.2-0.5-0.4c-0.8-0.7-1.6-1.4-2.5-2.1c-5.3,3.6-11.7,5.5-18.9,5.8c0.1-1.5,0.2-3,0.4-4.5c0.1-0.9-1.4-1.1-1.6-0.2
				c0,0.2-0.1,0.4-0.1,0.5c-0.3-0.4-0.9-0.5-1,0.1c-0.1,0.7-0.2,1.3-0.3,2c-0.1-0.1-0.3-0.3-0.4-0.4c-1.4-3.3-3-6.7-4.3-10.1
				c1.7-0.2,3.3-1,4.4-2.6c0.8-1.1-0.2-2.3-1.3-2.5c1.7-2.4,2.9-5.3,3.7-7.9c1.2-3.8,0-8.6-4.1-10.1c-4.3-1.5-9.4,2.6-7.7,7.2
				c0.3,0.8,1.3,0.8,1.7,0c0.6-1.5,0.8-2.9,2.2-3.9c1-0.7,2.3-0.9,3.5-0.7c3.4,0.8,3,5.1,2.2,7.6c-0.9,2.9-2.4,5.8-4.3,8.2
				c-0.3,0.4-0.6,0.8-1,1.1c-1.2,0-2.3-0.7-3-1.7c0,0,0-0.1,0-0.1c0-0.2-0.2-0.4-0.3-0.5c-0.5-0.9-0.7-1.9-0.5-2.9
				c0.2-0.6-0.7-1.2-1.1-0.7c-2,2.6-1.4,5.9,1.1,8c1,0.9,2.2,1.3,3.4,1.5c0,0.1,0,0.2,0.1,0.3c0,0,0,0,0,0.1c0.2,2.8,0.9,5.5,2,8.1
				c0.3,0.7,0.7,1.5,1.1,2.4c0.7,2.1,1.4,4.1,2.1,6.2c-0.4,5.9-0.2,12.1,1,17.9c-0.4,0.1-0.9,0.3-1.3,0.4c-0.2,0.1-0.3,0.3-0.5,0.4
				l-2.9,1.6c0.5,0.1,1,0.4,1.4,0.7c0.5-0.1,1-0.2,1.5-0.3c0.8-0.1,1.6-0.2,2.4-0.3c0.5,2.1,1.2,4.1,2,6.1c0.8,2.5,1.7,5,2.7,7.3
				c0.9,2,4.2,0.5,3.5-1.5C73.5,144.9,72.2,140.6,71.1,136.2z"/>
			<path class="st1" d="M89.4,198.4c1.1-0.1,2.2-0.1,3.3-0.2c2.7-9.9-1.2-21.8-4.5-30.8c-2.1-5.9-5-11.4-6.9-17.3
				c-1.7-5.4-3.1-11.8-7.4-15.8c-0.7-0.6-1.6,0.2-1.2,0.9c4.4,9.4,7,19.7,11,29.3C88.2,175.5,90.9,186.6,89.4,198.4z"/>
			<path class="st1" d="M27.9,45.2c-0.3,0.1-0.5,0-0.8,0c-0.5,0-0.8,0.3-1,0.7c-0.3,1.1,0.4,1.9,1.4,2.3
				C30.4,49.7,30.7,44.4,27.9,45.2z"/>
			<path class="st1" d="M104.2,101.8c-0.4-0.4-0.9-0.9-1.3-1.3c0,0,0,0,0,0c-1.8-1.6-3.6-3.2-5.3-4.9c0.1-0.3,0-0.6-0.4-0.8
				c-0.2-0.1-0.5-0.2-0.7-0.3c-3-3.1-6.1-6.6-9.8-8.9C79,77.7,69.7,71.2,61.4,64.2c-4.5-3.7-8.8-8.6-13.9-11.9l0,0
				c0.1-0.4-0.1-0.8-0.5-1.1c-1.2-0.8-2.3-1.6-3.4-2.4c-1.5-1.2-3-2.4-4.3-3.8c-0.1-0.1-0.3-0.2-0.5-0.3c0,0-0.1,0-0.1,0
				c-0.6-0.1-1.2,0.4-1.3,1C32.5,43,27,41.1,22.1,38.6c-1.3-0.6-2.5-1.3-3.7-2c-1.1-0.3-2.1-0.6-3.2-0.9c0.6,1.3,1.1,2.7,1.7,4
				c0,0.1,0,0.1,0.1,0.2c0.4,0.7,0.8,1.4,1.1,2.1c0.1,0.2,0.1,0.4,0.1,0.6c2.4,4,4.9,7.8,7.7,11.5c0.6,0.8,1.2,1.6,1.9,2.4
				c0.8,1.2,1.5,2.4,2.4,3.5c1.4,1.4,2.8,2.8,4.2,4.2C40,68.9,45,74,50.4,78.8c2,1.7,3.9,3.5,5.9,5.2c0.5-0.8,1.1-1.7,1.6-2.5
				c-2.6-2-5.2-4.1-7.6-6.1c-2.2-1.8-4.4-3.9-6.6-6c-1.2-1-2.4-2.1-3.6-3.1c-1.1-1-2.3-2-3.5-3c0,0,0-0.1,0-0.1
				c-0.4-0.4-0.8-0.7-1.2-1.1c-2.9-1.9-4.8-4.7-7.1-7.2c-3.3-5.4-6.8-10.7-10-16c0.2,0.1,0.4,0.2,0.6,0.3c6.3,3.2,13.9,5.3,20.1,8.8
				c0.7,0.6,1.3,1.2,2,1.8c0,0,0.1,0.1,0.1,0.1c0,0.1,0,0.1,0.1,0.2c1.2,0.8,2.3,1.8,3.5,2.7c0.1,0.1,0.1,0.1,0.2,0.2c0,0,0,0,0,0
				c0,0,0,0,0,0c0.1,0,0.1,0.1,0.2,0.2c0,0,0,0,0,0c5.7,4.6,10.8,9.8,16.4,14.6c8.3,7.3,16.4,15,25.1,21.9c0.2,0.1,0.3,0.2,0.5,0.2
				c0.8,0.8,1.6,1.5,2.4,2.2c2.2,2.4,4.5,4.7,6.9,6.8c2.1,2.2,4.2,4.3,6.4,6.3c0.3,2.2,0,4.2-1.5,6.2c-1.7,2.1-3.9,2.7-6.1,2.1
				c-5.3-5-10.8-10-16.7-14.2c-1.1-0.9-2.1-1.7-3.2-2.6c-2.9-3-6-5.9-9.3-8.6c-0.1,0.1-0.2,0.3-0.2,0.4c-0.1,1.1-0.4,2.2-0.9,3.2
				c3.5,3.1,7,6.1,10.5,9c0.1,0.1,0.2,0.1,0.3,0.2c5.2,5.2,10.9,10,16.6,14.7c0.2,0.1,0.4,0.2,0.5,0.3c1.5,0.2,2.9,0.4,4.4,0.6
				c0.3,0,0.7,0,1-0.1c-0.1-0.1-0.1-0.1-0.2-0.2c1.6-0.1,3.2-0.8,4.7-2c1.8-1.4,2.9-3.5,3.3-5.7C106.2,106.1,105.1,104,104.2,101.8z
				"/>
			<path class="st1" d="M95.1,109.6c0.6,0.1,1.2,0.1,1.7,0c0.7-0.6,1.3-1.3,2-1.9c-0.1-1-0.2-1.9-0.4-2.9c-1.5-1.4-3-2.8-4.6-4.2
				c-1.2,1.7-2.5,3.3-3.9,4.5c1,0.9,1.9,1.7,2.8,2.6C93.5,108.3,94.3,109,95.1,109.6z"/>
			<path class="st1" d="M68.5,83.2c-0.2,1.1-0.4,2.1-0.4,3.1c2.3,2,4.5,4,6.8,6c3.4,2.6,6.6,5.4,9.9,8.2c1.6-1,3-2.5,4.2-4.4
				c-0.8-0.7-1.6-1.4-2.4-2.2c-11.5-10.5-22.9-20.5-35.2-30c-4.2-3.2-8-6.6-11.6-10.3c-0.2,0.4-0.4,0.7-0.6,1
				c-1,1.3-2.2,2.4-3.5,3.2c7.8,6.8,15.7,13.7,23.5,20.5c0.2,0,0.4-0.1,0.6-0.2c0.7-0.3,1.3-0.6,1.9-1c0.1-0.1,0.1-0.1,0.2-0.2
				c0.4,0.1,0.7,0.2,1.1,0.4c0.5,0.3,1,0.1,1.3-0.3c1.4,1.4,2.8,2.7,4.2,4C68.4,81.8,68.5,82.5,68.5,83.2z"/>
			<path class="st1" d="M29.5,44.7c-0.4-0.2-0.8-0.4-1.2-0.5c-2.3-1-4.6-2-6.9-3.1c1.7,3.2,3.6,6.2,5.5,9.3c2-1.2,3.8-2.8,5.2-4.6
				C31.2,45.4,30.4,45,29.5,44.7z"/>
			<path class="st1" d="M106.8,66.4c-0.3-1.2-0.6-2.4-0.9-3.6c0.1-2.5,0.2-5-0.6-7.4c0,0,0,0,0,0c-0.1-1.3-0.2-2.1-0.6-3.7
				c0,0,0,0,0,0c0-0.1,0-0.2,0-0.3C103.1,43.7,98,38.1,94,31.7c-0.5-0.7-1.1-1-1.8-1.1c-0.6-0.7-1.2-1.5-1.9-2.2
				c-0.1-0.1-0.2-0.1-0.2-0.2c-0.1-0.2-0.2-0.5-0.4-0.7c-2.4-2.5-4.9-4.6-8.5-4.6c-0.4-0.2-0.8-0.3-1.2-0.4
				c-0.1-0.2-0.2-0.3-0.3-0.5c-1.2-2.4-4.1-3.2-6.6-2.7c-0.1,0-0.2,0-0.4,0.1c-0.4,0.1-0.7,0.2-1,0.3c-6.5-1.6-13.4-0.9-20,1.4
				c-5.4,1.2-10.5,3.7-14.3,7.2c-4.3,2.5-8,5.9-11,10c-0.2,0-0.5,0.1-0.7,0.2c0,0-0.1,0.1-0.1,0.1c0.1-0.1,0-0.3,0-0.5
				c0.6-0.5-0.4-1.5-0.9-0.9c-0.3,0.3-0.5,0.7-0.8,1c-0.4,0.2-0.9,0.3-1.3,0.5c-0.4,0.2-0.1,0.7,0.3,0.6c0.1,0,0.1,0,0.2,0
				c0,0.3,0.3,0.6,0.6,0.4c0.3-0.2,0.5-0.4,0.8-0.6c0.2,0,0.5-0.1,0.7-0.1c0,0-0.1,0.1-0.2,0.1c-0.4,0.3-0.4,1-0.2,1.4
				c0.3,0.6,0.9,0.7,1.5,0.7c0.1,0.3,0.3,0.5,0.7,0.5c0.1,0.7,0.6,1.3,1.5,1.5c3,0.9,5.9,1.9,8.8,2.9c0.1,0.1,0.1,0.2,0.2,0.3
				c0.1,0.1,0.2,0.2,0.3,0.2c0.7,0.7,1.5,1.2,2.4,1.8c0,0,0.1,0,0.1,0c1.7,1.9,3.7,3.7,5.8,5c0,0,0.1,0,0.1,0
				c2.4,2.2,5.1,3.9,7.9,5.7c0.2,0.1,0.4,0.2,0.6,0.2c1.8,2,3.7,4,5.8,5.9c3.8,4,7.8,7.7,12.4,10.9c0.6,0.4,1.2,0.4,1.7,0.2
				c1.2,0.9,2.4,1.7,3.7,2.5c0,0,0,0,0,0c0.1,0.2,0.2,0.4,0.4,0.7c3.3,3.3,6.5,6.6,10.5,9.1c0.2,0.2,0.5,0.4,0.7,0.6
				c0.2,0.1,0.3,0.3,0.5,0.4c0.7,0.8,1.4,1.5,2.1,2.2c0.3,0.3,0.7,0.5,1.1,0.5c0.8,1.6,1.8,3.1,3.1,4.6c1.1,1.2,2.9,0.6,3.7-0.6
				c0.6-0.5,1-1.3,0.7-2.2c-0.1-0.2-0.2-0.4-0.3-0.7c0.5,0,0.9-0.1,1.4-0.3c0.5-1.2,0.9-2.4,1.3-3.6c0-1-0.2-2-0.4-3
				c0.5-0.8,0.9-1.6,1.2-2.5c0.3-0.3,0.5-0.6,0.5-1.1c0-0.3,0.1-0.6,0.1-0.9c1.1-4.2,0.9-8.7,0.7-13.1
				C106.6,68.6,107.1,67.7,106.8,66.4z"/>
			<path class="st1" d="M84.1,108c0.1-0.6,0-1.2-0.5-1.7c-0.7-0.7-1.4-1.2-2.2-1.8c-0.3-0.2-0.5-0.2-0.8-0.3
				c-3.5-2.5-6.7-5.6-10.2-8.1c0-0.1,0-0.2-0.1-0.3c-0.4-1.2-1.6-3.6-3.2-3.2c0,0,0-0.1,0-0.1c-0.2-1.7-2.5-2.2-3.1-0.4
				c-0.2,0.6-0.3,1.2-0.2,1.8c-0.1,0-0.2,0-0.2,0.1c-1.3,0.9-2.4,2.1-3.3,3.4c-0.2,0.3-0.3,0.7-0.3,1.1c-0.1,0.1-0.2,0.2-0.3,0.3
				c0-0.5-0.1-0.9-0.1-1.4c0-0.9-1.3-0.9-1.4,0c-0.1,0.7-0.1,1.3-0.1,2c2.3,4.6,4.3,9.3,5.9,14.1c0.1,0,0.2,0,0.3,0
				c0.3,0.5,0.7,1,1.3,1.3c0.5,0.3,1.1,0.1,1.4-0.4c0.2-0.2,0.5-0.3,0.8-0.4c0.3-0.1,0.4-0.3,0.4-0.6c0.6,0,1.1-0.3,1.7-0.3
				c0.2-0.3,0.3-1.4,0.3-1.4h0c0.5,0,1.1,1.2,1.7,1.4c1.5,0,3,0.2,4.5,0.3c1.3-0.3,2.6-0.6,3.7-1c0.5,0,0.9,0,1.3-0.3
				c0.8-0.3,1.5-0.5,2-0.8C84.8,110.8,85.1,109,84.1,108z"/>
			<path class="st1" d="M180.6,38.3c-0.5-2.6-1.3-5.1-2.3-7.4c-0.7-2.5-1.8-4.8-3.1-7.2c-0.2-0.4-0.5-0.8-0.7-1.2
				c-0.8-3.4-3.4-6.3-5.4-9c-0.4-0.5-1.1-0.8-1.7-0.8c-1.7-3.4-4.1-6.1-8.4-8c-6.8-3-14.3-4.4-21.7-3.5c-8,1-22.4,7.6-26.9,16.4
				c-1.1,1.2-2,2.6-2.6,4.3c-1.1,3.3,0.2,7.1,2.5,9.5c3,6.9,9.8,12.5,16.7,14.4c0,0,0-0.1,0-0.1c0.7,0.2,1.4,0.3,2.1,0.3
				c0.4,0.8,0.8,1.6,1.3,2.4c2.2,3.5,3,8.5,4,12.5c0.9,3.7,1.4,9.3,3.1,13.9c-0.5,5.2-0.8,10.2-0.6,15.3c-1.3,9.5-3,19.1-2.8,28.5
				c-0.1,0.4-0.3,0.7-0.3,1.1c-1.1,5.8-1.3,11.4-1.1,17.1c-0.7,7.4-0.4,15.1,0.2,22.3c-0.1,2.9-0.2,5.9-0.2,8.8
				c-2.9,9.3-2.4,19.9-0.3,30.9h43.8c-1.6-9-3.3-18.7-4-28.3c0.2-0.6,0.4-1.3,0.5-2c1.2-14.8,2.5-30.6,2.1-45.6
				c3.2-15.6,7.7-31.3,6.7-47.3c0.5-0.9,0.8-2,0.9-3.3C183.5,61.6,183.5,49.4,180.6,38.3z"/>
			<path class="st1" d="M88.8,178.3c-0.3-1.4-0.8-2.8-1.3-4.2c0-0.2,0-0.5,0-0.7c-1.6-8.2-4.8-17.4-9-24.9c-1-2.9-1.9-6.1-3.6-8.7
				c0.1-0.1,0.1-0.2,0.2-0.4c0.2-0.8,0.3-1.6,0.3-2.3c-0.1-2.2-2.1-3.9-4.3-3.3c-1.2,0.3-2.2,1.4-2.5,2.7c-2.9-0.8-6.5-0.2-9.1,0.3
				c-4.8,1-6.7,5.1-4.6,9.5c0.3,0.5,0.6,0.9,1.1,1.1c-0.4,1.4-0.7,2.8-0.9,4.2c-0.2,0.4-0.3,0.9-0.4,1.4c-0.2,1-0.4,1.9-0.7,2.8
				c0,0.1-0.1,0.2-0.1,0.3c-0.1,0.2-0.1,0.5-0.2,0.7C51,164.5,45,172.5,41,179.7c-3.8,3.4-6.9,7.3-9.4,11.8
				c-0.1,0.1-0.3,0.4-0.4,0.5c-2.3,2-3.9,3.7-5.3,6.7h64.2c0,0,0.1-0.5,0.1-0.6C91.2,191,90.7,185,88.8,178.3z"/>
		</g>
	</g>
</g>
</svg>
